999
"DXF R12 Output" (www.mydxf.blogspot.com)
 0 
SECTION
 2 
HEADER
 9 
$ACADVER
 1 
AC1009
 9 
$EXTMIN
 10 
 0 
 20 
 0 
 9 
$EXTMAX
 10 
 8.5 
 20 
 11 
 0 
ENDSEC
 0 
SECTION
 2 
ENTITIES
0
LINE
8
Layer 1
10
114.295000
20
59.081600
11
113.395159
21
58.679592
0
LINE
8
Layer 1
10
113.395159
20
58.679592
11
112.425310
21
58.504095
0
LINE
8
Layer 1
10
112.425310
20
58.504095
11
109.710680
21
58.503566
0
LINE
8
Layer 1
10
109.710680
20
58.503566
11
86.811480
21
58.609674
0
LINE
8
Layer 1
10
86.811480
20
58.609674
11
82.383250
21
58.616183
0
LINE
8
Layer 1
10
82.383250
20
58.616183
11
59.412050
21
58.422291
0
LINE
8
Layer 1
10
59.412050
20
58.422291
11
36.588750
21
42.429891
0
LINE
8
Layer 1
10
36.588750
20
42.429891
11
36.330406
21
41.284761
0
LINE
8
Layer 1
10
36.330406
20
41.284761
11
68.862206
21
40.180441
0
LINE
8
Layer 1
10
68.862206
20
40.180441
11
69.884179
21
39.988422
0
LINE
8
Layer 1
10
69.884179
20
39.988422
11
70.821555
21
39.542087
0
LINE
8
Layer 1
10
70.821555
20
39.542087
11
71.621101
21
38.878662
0
LINE
8
Layer 1
10
71.621101
20
38.878662
11
72.229586
21
38.035371
0
LINE
8
Layer 1
10
72.229586
20
38.035371
11
74.223046
21
34.668641
0
LINE
8
Layer 1
10
74.223046
20
34.668641
11
101.940146
21
34.623405
0
LINE
8
Layer 1
10
101.940146
20
34.623405
11
103.686185
21
34.510159
0
LINE
8
Layer 1
10
103.686185
20
34.510159
11
105.118326
21
34.266070
0
LINE
8
Layer 1
10
105.118326
20
34.266070
11
106.954436
21
33.961686
0
LINE
8
Layer 1
10
106.954436
20
33.961686
11
108.273640
21
33.414712
0
LINE
8
Layer 1
10
108.273640
20
33.414712
11
109.368636
21
32.496686
0
LINE
8
Layer 1
10
109.368636
20
32.496686
11
111.466816
21
34.016146
0
LINE
8
Layer 1
10
111.466816
20
34.016146
11
115.434816
21
45.816946
0
LINE
8
Layer 1
10
115.434816
20
45.816946
11
114.705019
21
46.152831
0
LINE
8
Layer 1
10
114.705019
20
46.152831
11
113.756637
21
46.151071
0
LINE
8
Layer 1
10
113.756637
20
46.151071
11
112.857616
21
46.451671
0
LINE
8
Layer 1
10
112.857616
20
46.451671
11
112.093720
21
47.012100
0
LINE
8
Layer 1
10
112.093720
20
47.012100
11
111.550709
21
47.789831
0
LINE
8
Layer 1
10
111.550709
20
47.789831
11
111.261936
21
48.995048
0
LINE
8
Layer 1
10
111.261936
20
48.995048
11
111.479462
21
50.218651
0
LINE
8
Layer 1
10
111.479462
20
50.218651
11
114.332162
21
59.104991
0
LINE
8
Layer 1
10
114.332162
20
59.104991
11
114.309778
21
59.090888
0
LINE
8
Layer 1
10
114.309778
20
59.090888
11
114.295000
21
59.081600
 0 
ENDSEC
 0 
EOF