999
"DXF R12 Output" (www.mydxf.blogspot.com)
 0 
SECTION
 2 
HEADER
 9 
$ACADVER
 1 
AC1009
 9 
$EXTMIN
 10 
 0 
 20 
 0 
 9 
$EXTMAX
 10 
 8.5 
 20 
 11 
 0 
ENDSEC
 0 
SECTION
 2 
ENTITIES
0
LINE
8
Layer 1
10
87.558400
20
79.708700
11
87.350826
21
78.745246
0
LINE
8
Layer 1
10
87.350826
20
78.745246
11
86.919162
21
77.859200
0
LINE
8
Layer 1
10
86.919162
20
77.859200
11
85.315132
21
75.669160
0
LINE
8
Layer 1
10
85.315132
20
75.669160
11
71.695032
21
57.260560
0
LINE
8
Layer 1
10
71.695032
20
57.260560
11
69.072502
21
53.692430
0
LINE
8
Layer 1
10
69.072502
20
53.692430
11
55.651902
21
35.048430
0
LINE
8
Layer 1
10
55.651902
20
35.048430
11
55.062276
21
7.186130
0
LINE
8
Layer 1
10
55.062276
20
7.186130
11
55.833287
21
6.300915
0
LINE
8
Layer 1
10
55.833287
20
6.300915
11
75.951887
21
31.889615
0
LINE
8
Layer 1
10
75.951887
20
31.889615
11
76.710809
21
32.600483
0
LINE
8
Layer 1
10
76.710809
20
32.600483
11
77.624871
21
33.092800
0
LINE
8
Layer 1
10
77.624871
20
33.092800
11
78.632584
21
33.345627
0
LINE
8
Layer 1
10
78.632584
20
33.345627
11
79.672457
21
33.338025
0
LINE
8
Layer 1
10
79.672457
20
33.338025
11
83.566407
21
32.956129
0
LINE
8
Layer 1
10
83.566407
20
32.956129
11
99.985007
21
55.287029
0
LINE
8
Layer 1
10
99.985007
20
55.287029
11
101.108346
21
56.628518
0
LINE
8
Layer 1
10
101.108346
20
56.628518
11
102.151697
21
57.639459
0
LINE
8
Layer 1
10
102.151697
20
57.639459
11
103.482457
21
58.940629
0
LINE
8
Layer 1
10
103.482457
20
58.940629
11
104.703376
21
59.681461
0
LINE
8
Layer 1
10
104.703376
20
59.681461
11
106.091087
21
60.022129
0
LINE
8
Layer 1
10
106.091087
20
60.022129
11
106.105560
21
62.612669
0
LINE
8
Layer 1
10
106.105560
20
62.612669
11
98.931850
21
72.788269
0
LINE
8
Layer 1
10
98.931850
20
72.788269
11
98.229567
21
72.398112
0
LINE
8
Layer 1
10
98.229567
20
72.398112
11
97.670448
21
71.632074
0
LINE
8
Layer 1
10
97.670448
20
71.632074
11
96.896609
21
71.084557
0
LINE
8
Layer 1
10
96.896609
20
71.084557
11
95.993047
21
70.799608
0
LINE
8
Layer 1
10
95.993047
20
70.799608
11
95.044757
21
70.821272
0
LINE
8
Layer 1
10
95.044757
20
70.821272
11
93.901904
21
71.300677
0
LINE
8
Layer 1
10
93.901904
20
71.300677
11
93.043467
21
72.199352
0
LINE
8
Layer 1
10
93.043467
20
72.199352
11
87.561507
21
79.752692
0
LINE
8
Layer 1
10
87.561507
20
79.752692
11
87.559655
21
79.726287
0
LINE
8
Layer 1
10
87.559655
20
79.726287
11
87.558400
21
79.708700
 0 
ENDSEC
 0 
EOF