999
"DXF R12 Output" (www.mydxf.blogspot.com)
 0 
SECTION
 2 
HEADER
 9 
$ACADVER
 1 
AC1009
 9 
$EXTMIN
 10 
 0 
 20 
 0 
 9 
$EXTMAX
 10 
 8.5 
 20 
 11 
 0 
ENDSEC
 0 
SECTION
 2 
ENTITIES
0
LINE
8
Layer 1
10
113.743000
20
58.482100
11
112.785406
21
58.242084
0
LINE
8
Layer 1
10
112.785406
20
58.242084
11
111.797390
21
58.194263
0
LINE
8
Layer 1
10
111.797390
20
58.194263
11
107.460730
21
58.213498
0
LINE
8
Layer 1
10
107.460730
20
58.213498
11
86.358030
21
58.316093
0
LINE
8
Layer 1
10
86.358030
20
58.316093
11
78.020880
21
58.278911
0
LINE
8
Layer 1
10
78.020880
20
58.278911
11
59.507680
21
58.122937
0
LINE
8
Layer 1
10
59.507680
20
58.122937
11
36.856380
21
42.251037
0
LINE
8
Layer 1
10
36.856380
20
42.251037
11
36.702901
21
41.572009
0
LINE
8
Layer 1
10
36.702901
20
41.572009
11
68.962001
21
40.474249
0
LINE
8
Layer 1
10
68.962001
20
40.474249
11
70.033584
21
40.254732
0
LINE
8
Layer 1
10
70.033584
20
40.254732
11
71.015939
21
39.773566
0
LINE
8
Layer 1
10
71.015939
20
39.773566
11
71.853794
21
39.069432
0
LINE
8
Layer 1
10
71.853794
20
39.069432
11
72.491881
21
38.181009
0
LINE
8
Layer 1
10
72.491881
20
38.181009
11
72.987093
21
37.345908
0
LINE
8
Layer 1
10
72.987093
20
37.345908
11
74.395123
21
34.968288
0
LINE
8
Layer 1
10
74.395123
20
34.968288
11
101.983123
21
34.921918
0
LINE
8
Layer 1
10
101.983123
20
34.921918
11
103.505256
21
34.826441
0
LINE
8
Layer 1
10
103.505256
20
34.826441
11
105.011263
21
34.593629
0
LINE
8
Layer 1
10
105.011263
20
34.593629
11
106.534020
21
34.346393
0
LINE
8
Layer 1
10
106.534020
20
34.346393
11
108.002883
21
33.903099
0
LINE
8
Layer 1
10
108.002883
20
33.903099
11
109.407403
21
32.894519
0
LINE
8
Layer 1
10
109.407403
20
32.894519
11
111.213493
21
34.203479
0
LINE
8
Layer 1
10
111.213493
20
34.203479
11
115.058213
21
45.635879
0
LINE
8
Layer 1
10
115.058213
20
45.635879
11
114.593695
21
45.833523
0
LINE
8
Layer 1
10
114.593695
20
45.833523
11
113.527078
21
45.890112
0
LINE
8
Layer 1
10
113.527078
20
45.890112
11
112.536069
21
46.289901
0
LINE
8
Layer 1
10
112.536069
20
46.289901
11
111.719673
21
46.977570
0
LINE
8
Layer 1
10
111.719673
20
46.977570
11
111.176895
21
47.897803
0
LINE
8
Layer 1
10
111.176895
20
47.897803
11
110.965527
21
49.175801
0
LINE
8
Layer 1
10
110.965527
20
49.175801
11
111.238419
21
50.446823
0
LINE
8
Layer 1
10
111.238419
20
50.446823
11
113.828829
21
58.517243
0
LINE
8
Layer 1
10
113.828829
20
58.517243
11
113.743045
21
58.482103
0
LINE
8
Layer 1
10
113.743045
20
58.482103
11
113.743000
21
58.482100
 0 
ENDSEC
 0 
EOF